<svg width="286" height="286" viewBox="0 0 286 286" fill="none" xmlns="http://www.w3.org/2000/svg">
<path d="M137.48 0.0377197C114.548 0.654712 92.5762 7.09887 70.8101 19.5073C61.4181 24.8888 55.2482 29.482 45.7191 38.2912C35.196 48.026 26.181 59.3033 19.0513 71.6088C17.4403 74.3853 12.9842 83.2974 11.2361 87.205C7.12281 96.3913 3.76363 107.977 2.08404 118.535C1.80982 120.385 1.46705 122.031 1.39849 122.202C0.404452 123.779 -0.383927 145.202 0.198788 154.389C0.541561 159.873 2.28971 170.328 4.27779 178.794C6.74576 189.214 12.9842 203.954 19.634 215.06C24.7414 223.56 27.5521 227.365 36.0186 237.34C38.3152 240.048 47.2616 248.72 51.0321 251.873C62.9263 261.78 76.5344 270.006 89.6627 275.216C99.0546 278.952 101.625 279.707 113.314 282.414C115.988 283.031 122.74 284.094 127.71 284.711C131.721 285.191 150.608 285.328 155.647 284.882C158.629 284.643 165.724 283.614 168.843 282.997C179.366 280.872 185.811 278.952 195.751 274.976C207.131 270.417 218.1 264.11 229.137 255.747C238.426 248.72 251.794 235.112 257.793 226.542C264.477 216.945 270.544 206.49 272.978 200.32C273.561 198.915 274.589 196.447 275.274 194.836C279.765 184.484 282.541 173.31 284.529 157.474C284.632 156.617 284.804 151.852 284.941 146.882C285.146 138.415 284.906 133.822 284.049 127.31L283.844 125.801L243.499 125.767H203.155L202.641 126.967C202.332 127.618 201.75 129.16 201.27 130.394C200.241 133.205 196.471 142.974 195.991 144.105C195.785 144.585 194.928 146.882 194.071 149.247C193.214 151.612 191.364 156.685 189.924 160.559C188.484 164.432 186.428 170.019 185.365 173.001L183.411 178.451L182.143 174.544C181.457 172.418 180.635 169.505 180.326 168.1C180.018 166.694 179.332 164.055 178.784 162.272C178.27 160.49 177.344 157.302 176.796 155.246C175.767 151.544 175.459 150.344 172.614 139.821C171.825 136.976 170.66 132.76 170.009 130.394C169.357 128.029 168.603 125.253 168.329 124.225C168.055 123.196 166.89 119.014 165.793 114.97C164.661 110.925 163.359 106.023 162.879 104.069C162.399 102.116 161.679 99.5791 161.302 98.4137C160.925 97.2483 159.863 93.5463 158.937 90.1871C158.012 86.828 157.189 84.0172 157.12 83.9487C156.983 83.8116 140.016 83.6745 132.818 83.743L129.87 83.7773L128.807 87.6163C127.676 91.8325 124.386 103.452 122.226 110.856C121.472 113.393 120.341 117.472 119.69 119.94C119.038 122.374 117.667 127.31 116.605 130.909C115.576 134.473 114.342 138.964 113.862 140.849C113.348 142.734 112.491 145.819 111.909 147.705C109.852 154.32 108.412 159.564 105.053 172.213C104.539 174.201 104.025 175.572 103.922 175.298C103.819 175.024 103.511 173.927 103.271 172.898C102.997 171.87 101.968 168.374 100.974 165.186C99.9801 161.964 98.5748 157.336 97.8892 154.903C97.1694 152.435 96.1753 149.041 95.6612 147.362C95.147 145.648 93.8445 141.226 92.7476 137.524C91.6507 133.822 90.3139 129.332 89.7312 127.584C88.0173 122.134 87.1947 119.357 86.4063 116.341C85.9607 114.73 84.0754 108.32 82.1902 102.116C80.3049 95.8772 78.1112 88.6447 77.3228 86.0053C76.5344 83.366 74.8548 77.7445 73.5523 73.4941C69.3705 59.8174 69.3019 59.5089 70.2274 58.652C70.8787 58.0007 76.603 53.5447 78.6939 52.0022C84.0069 48.1631 95.0785 42.096 101.42 39.5938C114.891 34.2465 127.265 31.8471 141.764 31.71C155.372 31.5729 167.815 33.7666 180.84 38.5312C188.45 41.3077 202.949 49.1914 207.919 53.2362C208.776 53.9217 210.079 54.95 210.833 55.4985C215.186 58.6863 223.002 66.1587 227.149 71.0947C231.022 75.6878 236.301 83.2631 239.283 88.4733L240.894 91.3183H257.999C267.391 91.3183 275.103 91.2497 275.103 91.1469C275.103 91.0441 274.315 89.0903 273.355 86.7937C266.397 70.1006 256.559 55.6013 243.225 42.3017C230.988 30.099 220.945 22.8322 205.383 14.9141C193.969 9.12122 179.092 4.0139 168.329 2.23148C167.027 1.99153 165.073 1.68304 164.044 1.51166C158.149 0.483337 145.809 -0.167944 137.48 0.0377197ZM48.5298 88.3019C49.8324 92.7237 55.0425 109.897 56.2422 113.77C56.8935 115.827 57.9561 119.46 58.6417 121.825C59.3272 124.19 60.9382 129.435 62.2408 133.479C65.2915 143.077 68.3079 152.778 69.3362 156.445C70.3302 159.907 72.7296 167.688 74.5806 173.413C76.7058 180.028 79.5851 189.214 80.7505 193.293C81.3333 195.35 83.2528 201.52 85.0352 207.004C86.7834 212.454 88.6686 218.384 89.1828 220.133L90.1768 223.32H103.374H116.57L117.633 219.618C118.25 217.596 119.484 213.209 120.444 209.918C121.369 206.627 122.603 202.377 123.186 200.492C123.734 198.606 124.934 194.425 125.825 191.237C126.716 188.015 127.71 184.416 128.053 183.182C128.396 181.948 129.253 178.863 129.939 176.326C131.07 172.179 131.927 169.128 134.737 159.187C135.217 157.576 137.068 150.961 138.851 144.448C140.667 137.935 142.313 132.074 142.518 131.423L142.895 130.223L143.341 131.286C143.581 131.868 144.781 136.324 146.049 141.192C147.283 146.059 148.38 150.173 148.483 150.344C148.585 150.515 149.134 152.229 149.648 154.149C150.162 156.068 151.396 160.49 152.356 163.986C153.281 167.483 154.413 171.253 154.79 172.384C155.167 173.515 156.126 176.737 156.881 179.582C159.486 189.283 162.742 200.869 163.53 203.234C163.77 203.988 165.176 208.684 166.615 213.688C168.055 218.693 169.289 222.943 169.357 223.115C169.392 223.32 169.906 223.457 170.42 223.423C170.968 223.389 176.898 223.32 183.583 223.286L195.751 223.252L197.191 218.899C198.562 214.785 200.344 209.815 207.748 189.351C209.496 184.553 212.033 177.526 213.37 173.755C214.706 169.985 216.42 165.289 217.14 163.301C217.894 161.313 218.614 159.222 218.785 158.673L219.128 157.645L236.13 157.542L253.131 157.474L252.926 158.742C252.034 165.186 249.395 175.401 247.201 181.091C246.55 182.702 245.933 184.416 245.796 184.895C244.939 187.706 239.9 197.201 236.575 202.343C229.48 213.209 217.551 226.097 209.462 231.615C208.708 232.13 206.788 233.466 205.177 234.598C195.34 241.556 180.703 248.274 169.015 251.188C160 253.45 153.35 254.17 141.936 254.204C133.64 254.204 131.138 253.999 123.94 252.73C110.4 250.331 96.0382 244.847 84.8638 237.854C80.065 234.838 80.0307 234.838 74.5463 230.724C69.9532 227.262 62.1037 219.893 58.436 215.505C57.0306 213.86 55.6253 212.18 55.2825 211.803C53.7743 210.192 49.4553 203.954 47.1245 200.149C44.9993 196.618 39.275 185.615 39.275 185.033C39.275 184.93 38.9665 184.21 38.6237 183.422C37.0127 179.857 33.3793 166.214 32.3852 160.044C30.4657 147.773 30.9456 132.314 33.5849 120.008C35.3331 112.022 39.3435 100.813 43.2854 92.8608C44.6565 90.1186 47.2273 85.8339 47.5015 85.8339C47.6729 85.8339 48.1185 86.9651 48.5298 88.3019Z" fill="white"/>
</svg>
